# xmcd CD database file
#
# Track frame offsets:
#	150
#	22682
#	35703
#	56856
#	72558
#	89939
#	101308
#	122316
#	142362
#	161357
#	187588
#	207954
#
# Disc length: 3047 seconds
#
# Revision: 0
# Processed by: cddbd v1.5.1PL0 Copyright (c) Steve Scherf et al.
# Submitted via: CDex 1.50
#
DISCID=a60be50c
DTITLE=Manuel Galbara - Mambo Sinuendo
DYEAR=1900
DGENRE=Salsa
TTITLE0=Drume Negrita
TTITLE1=Monte Andentro
TTITLE2=Lost Twangueros
TTITLE3=Patricia
TTITLE4=Caballo Viejo
TTITLE5=Mambo sinuendo
TTITLE6=Dodas de Oro
TTITLE7=Echele salsita
TTITLE8=La Luna en tu mirada
TTITLE9=Secret love
TTITLE10=Bolero sonambulo
TTITLE11=Maria la O
EXTD=
EXTT0=
EXTT1=
EXTT2=
EXTT3=
EXTT4=
EXTT5=
EXTT6=
EXTT7=
EXTT8=
EXTT9=
EXTT10=
EXTT11=
PLAYORDER=
